<svg width="72" height="72" viewBox="0 0 72 72" fill="none" xmlns="http://www.w3.org/2000/svg">
<path d="M35.8223 0.5L36.6982 0.511719C45.7452 0.745316 54.3721 4.44145 60.7871 10.8564C67.4087 17.4782 71.1327 26.4568 71.1426 35.8213L71.1367 36.4756C71.0116 43.233 68.9504 49.8182 65.1904 55.4453C61.3093 61.2538 55.792 65.7807 49.3379 68.4541C42.8839 71.1274 35.7822 71.8267 28.9307 70.4639C22.0791 69.101 15.7854 65.7375 10.8457 60.7979C5.90591 55.8581 2.5416 49.5636 1.17871 42.7119C-0.18406 35.8604 0.515211 28.7587 3.18848 22.3047C5.86187 15.8505 10.3897 10.3343 16.1982 6.45312C22.0068 2.57201 28.8354 0.50003 35.8213 0.5H35.8223ZM46.9053 9.06152C41.6129 6.86943 35.7893 6.29651 30.1709 7.41406C24.5524 8.53166 19.3915 11.2901 15.3408 15.3408C11.2901 19.3915 8.53166 24.5524 7.41406 30.1709C6.29651 35.7893 6.86943 41.6129 9.06152 46.9053C11.2537 52.1977 14.9664 56.7217 19.7295 59.9043C24.4926 63.0869 30.0927 64.7861 35.8213 64.7861L36.54 64.7764C43.9585 64.5841 51.0326 61.5533 56.293 56.293C61.7229 50.863 64.7773 43.5004 64.7861 35.8213L64.7803 35.2852C64.6777 29.7439 62.9875 24.3439 59.9043 19.7295C56.7217 14.9664 52.1977 11.2537 46.9053 9.06152ZM35.8213 48.7139C37.0193 48.7139 38.1684 49.1901 39.0156 50.0371C39.8629 50.8844 40.3389 52.0342 40.3389 53.2324C40.3388 54.1258 40.0745 54.9993 39.5781 55.7422C39.0818 56.485 38.3762 57.0643 37.5508 57.4062C36.7254 57.7481 35.8167 57.8373 34.9404 57.6631C34.0641 57.4888 33.2588 57.0586 32.627 56.4268C31.9951 55.7949 31.5649 54.9897 31.3906 54.1133C31.2164 53.237 31.3055 52.3284 31.6475 51.5029C31.9894 50.6775 32.5686 49.972 33.3115 49.4756C34.0544 48.9792 34.9278 48.7139 35.8213 48.7139ZM35.8213 16.5713C43.4328 16.5713 49.7139 22.1544 49.7139 29.125C49.7139 35.0947 45.0975 40.0515 38.9951 41.3467C38.9537 42.1283 38.6255 42.8695 38.0693 43.4258C37.4732 44.0219 36.6643 44.3574 35.8213 44.3574C34.9783 44.3574 34.1703 44.0218 33.5742 43.4258C32.9782 42.8297 32.6426 42.0217 32.6426 41.1787V38.5C32.6426 37.657 32.9781 36.8481 33.5742 36.252C34.1702 35.6561 34.9785 35.3213 35.8213 35.3213C40.0636 35.3213 43.3574 32.4508 43.3574 29.125C43.3574 25.7992 40.0636 22.9287 35.8213 22.9287C31.579 22.9288 28.2861 25.7993 28.2861 29.125V30.4639C28.2861 31.3069 27.9506 32.1158 27.3545 32.7119C26.7585 33.3079 25.9503 33.6425 25.1074 33.6426C24.2644 33.6426 23.4555 33.308 22.8594 32.7119C22.2633 32.1158 21.9287 31.3068 21.9287 30.4639V29.125C21.9287 22.1545 28.2099 16.5714 35.8213 16.5713Z" fill="#30C3B0" stroke="#30C3B0"/>
</svg>
