<svg width="77" height="72" viewBox="0 0 77 72" fill="none" xmlns="http://www.w3.org/2000/svg">
<mask id="path-1-outside-1_1193_450" maskUnits="userSpaceOnUse" x="0" y="0" width="77" height="72" fill="black">
<rect fill="white" width="77" height="72"/>
<path d="M38.5032 19.8492C35.3248 19.8492 32.2177 20.7964 29.575 22.5711C26.9323 24.3457 24.8725 26.8681 23.6562 29.8192C22.4399 32.7703 22.1216 36.0176 22.7417 39.1505C23.3618 42.2834 24.8923 45.1612 27.1398 47.4199C29.3872 49.6785 32.2507 51.2167 35.368 51.8399C38.4853 52.4631 41.7165 52.1432 44.653 50.9208C47.5895 49.6985 50.0993 47.6284 51.8651 44.9725C53.6309 42.3165 54.5734 39.194 54.5734 35.9997C54.569 31.7177 52.8745 27.6123 49.8617 24.5845C46.8489 21.5567 42.7639 19.8537 38.5032 19.8492ZM38.5032 46.7667C36.3842 46.7667 34.3129 46.1353 32.5511 44.9522C30.7892 43.7691 29.4161 42.0875 28.6052 40.1201C27.7943 38.1527 27.5821 35.9878 27.9955 33.8992C28.4089 31.8106 29.4293 29.8921 30.9276 28.3863C32.4259 26.8805 34.3349 25.855 36.4131 25.4396C38.4913 25.0241 40.6454 25.2374 42.6031 26.0523C44.5607 26.8672 46.2339 28.2473 47.4111 30.0179C48.5884 31.7885 49.2167 33.8702 49.2167 35.9997C49.2167 38.8553 48.0879 41.5939 46.0788 43.6131C44.0696 45.6323 41.3446 46.7667 38.5032 46.7667ZM75.3108 29.0045C75.2362 28.6255 75.0813 28.267 74.8565 27.9535C74.6318 27.64 74.3426 27.3788 74.0084 27.1876L64.0214 21.4676L63.9813 10.1555C63.98 9.76595 63.8947 9.38128 63.7311 9.02808C63.5675 8.67488 63.3296 8.36157 63.0338 8.10981C59.411 5.0301 55.2392 2.67 50.74 1.15499C50.3857 1.03447 50.0102 0.989865 49.6377 1.02406C49.2652 1.05825 48.9039 1.17047 48.5772 1.35351L38.5032 7.01292L28.4191 1.34341C28.0922 1.15935 27.7304 1.04628 27.3573 1.0115C26.9842 0.976726 26.608 1.02102 26.2529 1.14153C21.7571 2.66761 17.59 5.03671 13.9726 8.12326C13.6772 8.37466 13.4395 8.68743 13.2759 9.04001C13.1124 9.39259 13.0268 9.77662 13.0251 10.1656L12.9749 21.4878L2.98787 27.2078C2.65375 27.399 2.36449 27.6602 2.13977 27.9737C1.91504 28.2872 1.76011 28.6457 1.68551 29.0247C0.771498 33.6407 0.771498 38.3924 1.68551 43.0084C1.76011 43.3874 1.91504 43.7459 2.13977 44.0594C2.36449 44.3729 2.65375 44.6341 2.98787 44.8253L12.9749 50.5453L13.015 61.8574C13.0163 62.2469 13.1016 62.6316 13.2652 62.9848C13.4288 63.338 13.6667 63.6513 13.9625 63.9031C17.5853 66.9828 21.7571 69.3429 26.2563 70.8579C26.6106 70.9784 26.9861 71.023 27.3586 70.9888C27.7311 70.9547 28.0924 70.8424 28.4191 70.6594L38.5032 64.9865L48.5873 70.656C48.9863 70.8795 49.4362 70.9954 49.893 70.9925C50.1855 70.9924 50.4761 70.9447 50.7534 70.8512C55.2487 69.3271 59.4158 66.9603 63.0338 63.8762C63.3292 63.6248 63.5668 63.312 63.7304 62.9594C63.894 62.6068 63.9796 62.2228 63.9813 61.8338L64.0315 50.5116L74.0185 44.7917C74.3526 44.6005 74.6419 44.3393 74.8666 44.0258C75.0913 43.7122 75.2462 43.3538 75.3208 42.9747C76.2298 38.3624 76.2263 33.6155 75.3108 29.0045ZM70.2888 40.7507L60.7237 46.2183C60.3046 46.4578 59.9576 46.8065 59.7193 47.2277C59.5251 47.5642 59.3209 47.9208 59.1133 48.2573C58.8476 48.6816 58.706 49.1725 58.7048 49.6738L58.6546 60.5249C56.0836 62.554 53.2193 64.1766 50.1608 65.3364L40.512 59.9328C40.1114 59.71 39.6607 59.5942 39.2029 59.5963H39.1393C38.7342 59.5963 38.3257 59.5963 37.9206 59.5963C37.4415 59.5843 36.9678 59.7004 36.548 59.9328L26.8924 65.3499C23.8274 64.1989 20.9552 62.5843 18.3752 60.562L18.3383 49.7277C18.3367 49.2253 18.1952 48.7335 17.9299 48.3078C17.7223 47.9713 17.5181 47.6348 17.3272 47.2782C17.0906 46.8505 16.7436 46.4948 16.3228 46.2486L6.74764 40.7675C6.25214 37.6175 6.25214 34.4089 6.74764 31.2589L16.2961 25.7812C16.7152 25.5417 17.0622 25.1929 17.3005 24.7717C17.4946 24.4353 17.6989 24.0786 17.9064 23.7422C18.1721 23.3178 18.3137 22.827 18.3149 22.3256L18.3651 11.4745C20.9361 9.44541 23.8004 7.82286 26.8589 6.66299L36.4944 12.0667C36.9137 12.3003 37.3878 12.4165 37.8671 12.4031C38.2722 12.4031 38.6806 12.4031 39.0857 12.4031C39.5649 12.4152 40.0386 12.2991 40.4584 12.0667L50.1139 6.64953C53.179 7.8005 56.0512 9.4151 58.6312 11.4375L58.668 22.2718C58.6697 22.7741 58.8112 23.266 59.0765 23.6917C59.284 24.0282 59.4883 24.3646 59.6791 24.7213C59.9157 25.149 60.2627 25.5047 60.6835 25.7509L70.2587 31.232C70.7608 34.3844 70.7665 37.5965 70.2754 40.7507H70.2888Z"/>
</mask>
<path d="M38.5032 19.8492C35.3248 19.8492 32.2177 20.7964 29.575 22.5711C26.9323 24.3457 24.8725 26.8681 23.6562 29.8192C22.4399 32.7703 22.1216 36.0176 22.7417 39.1505C23.3618 42.2834 24.8923 45.1612 27.1398 47.4199C29.3872 49.6785 32.2507 51.2167 35.368 51.8399C38.4853 52.4631 41.7165 52.1432 44.653 50.9208C47.5895 49.6985 50.0993 47.6284 51.8651 44.9725C53.6309 42.3165 54.5734 39.194 54.5734 35.9997C54.569 31.7177 52.8745 27.6123 49.8617 24.5845C46.8489 21.5567 42.7639 19.8537 38.5032 19.8492ZM38.5032 46.7667C36.3842 46.7667 34.3129 46.1353 32.5511 44.9522C30.7892 43.7691 29.4161 42.0875 28.6052 40.1201C27.7943 38.1527 27.5821 35.9878 27.9955 33.8992C28.4089 31.8106 29.4293 29.8921 30.9276 28.3863C32.4259 26.8805 34.3349 25.855 36.4131 25.4396C38.4913 25.0241 40.6454 25.2374 42.6031 26.0523C44.5607 26.8672 46.2339 28.2473 47.4111 30.0179C48.5884 31.7885 49.2167 33.8702 49.2167 35.9997C49.2167 38.8553 48.0879 41.5939 46.0788 43.6131C44.0696 45.6323 41.3446 46.7667 38.5032 46.7667ZM75.3108 29.0045C75.2362 28.6255 75.0813 28.267 74.8565 27.9535C74.6318 27.64 74.3426 27.3788 74.0084 27.1876L64.0214 21.4676L63.9813 10.1555C63.98 9.76595 63.8947 9.38128 63.7311 9.02808C63.5675 8.67488 63.3296 8.36157 63.0338 8.10981C59.411 5.0301 55.2392 2.67 50.74 1.15499C50.3857 1.03447 50.0102 0.989865 49.6377 1.02406C49.2652 1.05825 48.9039 1.17047 48.5772 1.35351L38.5032 7.01292L28.4191 1.34341C28.0922 1.15935 27.7304 1.04628 27.3573 1.0115C26.9842 0.976726 26.608 1.02102 26.2529 1.14153C21.7571 2.66761 17.59 5.03671 13.9726 8.12326C13.6772 8.37466 13.4395 8.68743 13.2759 9.04001C13.1124 9.39259 13.0268 9.77662 13.0251 10.1656L12.9749 21.4878L2.98787 27.2078C2.65375 27.399 2.36449 27.6602 2.13977 27.9737C1.91504 28.2872 1.76011 28.6457 1.68551 29.0247C0.771498 33.6407 0.771498 38.3924 1.68551 43.0084C1.76011 43.3874 1.91504 43.7459 2.13977 44.0594C2.36449 44.3729 2.65375 44.6341 2.98787 44.8253L12.9749 50.5453L13.015 61.8574C13.0163 62.2469 13.1016 62.6316 13.2652 62.9848C13.4288 63.338 13.6667 63.6513 13.9625 63.9031C17.5853 66.9828 21.7571 69.3429 26.2563 70.8579C26.6106 70.9784 26.9861 71.023 27.3586 70.9888C27.7311 70.9547 28.0924 70.8424 28.4191 70.6594L38.5032 64.9865L48.5873 70.656C48.9863 70.8795 49.4362 70.9954 49.893 70.9925C50.1855 70.9924 50.4761 70.9447 50.7534 70.8512C55.2487 69.3271 59.4158 66.9603 63.0338 63.8762C63.3292 63.6248 63.5668 63.312 63.7304 62.9594C63.894 62.6068 63.9796 62.2228 63.9813 61.8338L64.0315 50.5116L74.0185 44.7917C74.3526 44.6005 74.6419 44.3393 74.8666 44.0258C75.0913 43.7122 75.2462 43.3538 75.3208 42.9747C76.2298 38.3624 76.2263 33.6155 75.3108 29.0045ZM70.2888 40.7507L60.7237 46.2183C60.3046 46.4578 59.9576 46.8065 59.7193 47.2277C59.5251 47.5642 59.3209 47.9208 59.1133 48.2573C58.8476 48.6816 58.706 49.1725 58.7048 49.6738L58.6546 60.5249C56.0836 62.554 53.2193 64.1766 50.1608 65.3364L40.512 59.9328C40.1114 59.71 39.6607 59.5942 39.2029 59.5963H39.1393C38.7342 59.5963 38.3257 59.5963 37.9206 59.5963C37.4415 59.5843 36.9678 59.7004 36.548 59.9328L26.8924 65.3499C23.8274 64.1989 20.9552 62.5843 18.3752 60.562L18.3383 49.7277C18.3367 49.2253 18.1952 48.7335 17.9299 48.3078C17.7223 47.9713 17.5181 47.6348 17.3272 47.2782C17.0906 46.8505 16.7436 46.4948 16.3228 46.2486L6.74764 40.7675C6.25214 37.6175 6.25214 34.4089 6.74764 31.2589L16.2961 25.7812C16.7152 25.5417 17.0622 25.1929 17.3005 24.7717C17.4946 24.4353 17.6989 24.0786 17.9064 23.7422C18.1721 23.3178 18.3137 22.827 18.3149 22.3256L18.3651 11.4745C20.9361 9.44541 23.8004 7.82286 26.8589 6.66299L36.4944 12.0667C36.9137 12.3003 37.3878 12.4165 37.8671 12.4031C38.2722 12.4031 38.6806 12.4031 39.0857 12.4031C39.5649 12.4152 40.0386 12.2991 40.4584 12.0667L50.1139 6.64953C53.179 7.8005 56.0512 9.4151 58.6312 11.4375L58.668 22.2718C58.6697 22.7741 58.8112 23.266 59.0765 23.6917C59.284 24.0282 59.4883 24.3646 59.6791 24.7213C59.9157 25.149 60.2627 25.5047 60.6835 25.7509L70.2587 31.232C70.7608 34.3844 70.7665 37.5965 70.2754 40.7507H70.2888Z" fill="#30C3B0"/>
<path d="M38.5032 19.8492C35.3248 19.8492 32.2177 20.7964 29.575 22.5711C26.9323 24.3457 24.8725 26.8681 23.6562 29.8192C22.4399 32.7703 22.1216 36.0176 22.7417 39.1505C23.3618 42.2834 24.8923 45.1612 27.1398 47.4199C29.3872 49.6785 32.2507 51.2167 35.368 51.8399C38.4853 52.4631 41.7165 52.1432 44.653 50.9208C47.5895 49.6985 50.0993 47.6284 51.8651 44.9725C53.6309 42.3165 54.5734 39.194 54.5734 35.9997C54.569 31.7177 52.8745 27.6123 49.8617 24.5845C46.8489 21.5567 42.7639 19.8537 38.5032 19.8492ZM38.5032 46.7667C36.3842 46.7667 34.3129 46.1353 32.5511 44.9522C30.7892 43.7691 29.4161 42.0875 28.6052 40.1201C27.7943 38.1527 27.5821 35.9878 27.9955 33.8992C28.4089 31.8106 29.4293 29.8921 30.9276 28.3863C32.4259 26.8805 34.3349 25.855 36.4131 25.4396C38.4913 25.0241 40.6454 25.2374 42.6031 26.0523C44.5607 26.8672 46.2339 28.2473 47.4111 30.0179C48.5884 31.7885 49.2167 33.8702 49.2167 35.9997C49.2167 38.8553 48.0879 41.5939 46.0788 43.6131C44.0696 45.6323 41.3446 46.7667 38.5032 46.7667ZM75.3108 29.0045C75.2362 28.6255 75.0813 28.267 74.8565 27.9535C74.6318 27.64 74.3426 27.3788 74.0084 27.1876L64.0214 21.4676L63.9813 10.1555C63.98 9.76595 63.8947 9.38128 63.7311 9.02808C63.5675 8.67488 63.3296 8.36157 63.0338 8.10981C59.411 5.0301 55.2392 2.67 50.74 1.15499C50.3857 1.03447 50.0102 0.989865 49.6377 1.02406C49.2652 1.05825 48.9039 1.17047 48.5772 1.35351L38.5032 7.01292L28.4191 1.34341C28.0922 1.15935 27.7304 1.04628 27.3573 1.0115C26.9842 0.976726 26.608 1.02102 26.2529 1.14153C21.7571 2.66761 17.59 5.03671 13.9726 8.12326C13.6772 8.37466 13.4395 8.68743 13.2759 9.04001C13.1124 9.39259 13.0268 9.77662 13.0251 10.1656L12.9749 21.4878L2.98787 27.2078C2.65375 27.399 2.36449 27.6602 2.13977 27.9737C1.91504 28.2872 1.76011 28.6457 1.68551 29.0247C0.771498 33.6407 0.771498 38.3924 1.68551 43.0084C1.76011 43.3874 1.91504 43.7459 2.13977 44.0594C2.36449 44.3729 2.65375 44.6341 2.98787 44.8253L12.9749 50.5453L13.015 61.8574C13.0163 62.2469 13.1016 62.6316 13.2652 62.9848C13.4288 63.338 13.6667 63.6513 13.9625 63.9031C17.5853 66.9828 21.7571 69.3429 26.2563 70.8579C26.6106 70.9784 26.9861 71.023 27.3586 70.9888C27.7311 70.9547 28.0924 70.8424 28.4191 70.6594L38.5032 64.9865L48.5873 70.656C48.9863 70.8795 49.4362 70.9954 49.893 70.9925C50.1855 70.9924 50.4761 70.9447 50.7534 70.8512C55.2487 69.3271 59.4158 66.9603 63.0338 63.8762C63.3292 63.6248 63.5668 63.312 63.7304 62.9594C63.894 62.6068 63.9796 62.2228 63.9813 61.8338L64.0315 50.5116L74.0185 44.7917C74.3526 44.6005 74.6419 44.3393 74.8666 44.0258C75.0913 43.7122 75.2462 43.3538 75.3208 42.9747C76.2298 38.3624 76.2263 33.6155 75.3108 29.0045ZM70.2888 40.7507L60.7237 46.2183C60.3046 46.4578 59.9576 46.8065 59.7193 47.2277C59.5251 47.5642 59.3209 47.9208 59.1133 48.2573C58.8476 48.6816 58.706 49.1725 58.7048 49.6738L58.6546 60.5249C56.0836 62.554 53.2193 64.1766 50.1608 65.3364L40.512 59.9328C40.1114 59.71 39.6607 59.5942 39.2029 59.5963H39.1393C38.7342 59.5963 38.3257 59.5963 37.9206 59.5963C37.4415 59.5843 36.9678 59.7004 36.548 59.9328L26.8924 65.3499C23.8274 64.1989 20.9552 62.5843 18.3752 60.562L18.3383 49.7277C18.3367 49.2253 18.1952 48.7335 17.9299 48.3078C17.7223 47.9713 17.5181 47.6348 17.3272 47.2782C17.0906 46.8505 16.7436 46.4948 16.3228 46.2486L6.74764 40.7675C6.25214 37.6175 6.25214 34.4089 6.74764 31.2589L16.2961 25.7812C16.7152 25.5417 17.0622 25.1929 17.3005 24.7717C17.4946 24.4353 17.6989 24.0786 17.9064 23.7422C18.1721 23.3178 18.3137 22.827 18.3149 22.3256L18.3651 11.4745C20.9361 9.44541 23.8004 7.82286 26.8589 6.66299L36.4944 12.0667C36.9137 12.3003 37.3878 12.4165 37.8671 12.4031C38.2722 12.4031 38.6806 12.4031 39.0857 12.4031C39.5649 12.4152 40.0386 12.2991 40.4584 12.0667L50.1139 6.64953C53.179 7.8005 56.0512 9.4151 58.6312 11.4375L58.668 22.2718C58.6697 22.7741 58.8112 23.266 59.0765 23.6917C59.284 24.0282 59.4883 24.3646 59.6791 24.7213C59.9157 25.149 60.2627 25.5047 60.6835 25.7509L70.2587 31.232C70.7608 34.3844 70.7665 37.5965 70.2754 40.7507H70.2888Z" stroke="#30C3B0" stroke-width="2" mask="url(#path-1-outside-1_1193_450)"/>
</svg>
